# xmcd CD database file
#
# Track frame offsets:
#	150
#	11199
#	19272
#	30395
#	37284
#	49356
#	59889
#	70399
#	82168
#	92660
#	101929
#	115502
#	124347
#	137780
#	148507
#	159061
#
# Disc length: 2264 seconds
#
# Revision: 0
# Processed by: cddbd v1.4PL0 Copyright (c) Steve Scherf et al.
# Submitted via: CDex 1.50beta9
#
DISCID=ec08d610
DTITLE=diversen - cross country cowboys
DYEAR=1900
DGENRE=Country
TTITLE0=Dream baby
TTITLE1=Blue blue day
TTITLE2=House full of love
TTITLE3=It's so easy
TTITLE4=How can I unlove you
TTITLE5=Money
TTITLE6=Big wind
TTITLE7=Give myself a party
TTITLE8=White lightning
TTITLE9=Feel me a nanner
TTITLE10=Touch the morning
TTITLE11=Love's gona live here
TTITLE12=Country soul
TTITLE13=Fear away
TTITLE14=Sorrow on the rocks
TTITLE15=Sally was a good girl
EXTD=
EXTT0=
EXTT1=
EXTT2=
EXTT3=
EXTT4=
EXTT5=
EXTT6=
EXTT7=
EXTT8=
EXTT9=
EXTT10=
EXTT11=
EXTT12=
EXTT13=
EXTT14=
EXTT15=
PLAYORDER=
